<?xml version="1.0" standalone="no"?>
<!DOCTYPE svg PUBLIC "-//W3C//DTD SVG 20010904//EN"
 "http://www.w3.org/TR/2001/REC-SVG-20010904/DTD/svg10.dtd">
<svg version="1.0" xmlns="http://www.w3.org/2000/svg"
 width="2000.000000pt" height="1247.000000pt" viewBox="0 0 2000.000000 1247.000000"
 preserveAspectRatio="xMidYMid meet">

<g transform="translate(0.000000,1247.000000) scale(0.100000,-0.100000)"
fill="#000000" stroke="none">
<path d="M4203 7806 c-28 -24 -28 -26 -31 -158 -4 -157 5 -201 49 -223 29 -15
30 -19 27 -73 l-3 -57 -42 -7 c-79 -13 -145 -66 -180 -143 -17 -37 -18 -94
-21 -834 l-3 -794 -37 -41 c-83 -91 -124 -197 -124 -321 1 -242 173 -444 424
-500 65 -14 196 -15 1184 -13 l1111 3 49 30 c63 40 103 103 112 181 l7 60 219
-39 c154 -28 227 -37 244 -31 43 15 64 56 70 132 4 65 3 72 -20 95 -18 18 -49
30 -104 42 -43 10 -82 20 -87 24 -4 4 58 19 139 33 80 15 156 34 170 43 36 24
46 58 35 121 -13 70 -25 90 -62 109 -28 15 -40 14 -168 -10 -76 -14 -147 -25
-157 -25 -11 0 13 21 56 50 111 74 121 109 61 207 -29 47 -64 73 -98 73 -12 0
-14 7 -9 28 3 15 8 74 12 132 7 104 6 105 -20 131 l-26 26 16 64 c19 72 14
165 -10 224 -18 43 -63 65 -148 72 -55 6 -56 6 -63 41 -15 81 -77 161 -151
197 -22 11 -69 21 -105 23 l-67 4 -4 87 c-5 101 -28 158 -73 181 -22 11 -62
15 -145 15 -116 -1 -128 -3 -222 -53 -3 -2 -23 28 -43 66 -51 97 -105 152
-151 152 -33 0 -47 -12 -173 -141 l-137 -141 -37 25 c-48 32 -126 51 -181 43
-24 -4 -69 -22 -100 -41 -48 -29 -61 -33 -84 -24 -25 10 -121 14 -152 7 -13
-2 -16 20 -20 137 -5 150 -9 164 -69 228 -33 36 -71 56 -124 65 l-42 7 -3 63
c-2 51 0 62 13 62 8 0 24 9 35 20 18 18 20 33 20 184 l0 165 -26 20 c-25 20
-39 21 -265 21 -237 0 -238 0 -266 -24z m465 -183 l3 -113 -201 0 -200 0 0
115 0 115 198 -2 197 -3 3 -112z m-68 -268 l0 -55 -130 0 -130 0 0 55 0 55
130 0 130 0 0 -55z m154 -169 c57 -24 80 -69 85 -163 l3 -83 -60 0 c-64 0 -92
-15 -92 -49 0 -29 21 -40 85 -43 53 -3 60 -6 63 -25 2 -13 -10 -41 -26 -65
-37 -55 -52 -100 -52 -158 0 -39 -5 -51 -34 -79 -49 -48 -78 -120 -75 -187 3
-51 0 -56 -32 -84 l-34 -29 -242 -1 -243 0 0 315 0 315 183 0 c192 0 207 3
207 45 0 42 -15 45 -208 45 l-184 0 3 84 c4 96 21 129 80 158 30 16 66 18 287
18 193 0 261 -3 286 -14z m1113 -224 c14 -24 32 -61 39 -83 14 -38 13 -40 -22
-86 -37 -48 -37 -48 -89 -45 -43 3 -57 0 -74 -17 -26 -26 -26 -36 -1 -61 13
-13 33 -20 59 -20 35 0 38 -2 34 -24 -3 -15 -16 -29 -35 -37 -28 -12 -32 -10
-71 31 -23 24 -61 51 -84 62 -32 14 -44 27 -53 54 l-12 36 128 129 c141 141
135 139 181 61z m469 -107 c36 -49 18 -213 -29 -263 -13 -15 -30 -37 -36 -49
-6 -12 -25 -24 -43 -28 -18 -4 -51 -16 -72 -27 l-40 -20 -24 27 -23 27 70 73
c39 40 71 78 71 84 0 15 -37 51 -52 51 -7 0 -47 -34 -89 -76 -68 -67 -79 -75
-97 -65 -11 6 -30 11 -41 11 -29 0 -27 29 6 97 40 82 126 150 218 174 49 13
168 2 181 -16z m-937 -53 c46 -23 71 -59 85 -124 12 -53 13 -53 67 -70 34 -11
66 -30 86 -52 l32 -35 -29 -53 c-16 -29 -30 -61 -30 -70 0 -15 -19 -17 -171
-20 l-171 -3 -23 -27 -24 -28 -33 19 c-92 54 -243 65 -326 24 -29 -14 -40 -28
-53 -65 -20 -62 -24 -65 -44 -34 -37 56 -15 165 41 203 60 42 62 46 57 119 -4
61 -2 73 19 103 53 77 132 100 210 62 57 -27 69 -27 99 5 59 64 138 82 208 46z
m1169 -227 c67 -28 112 -86 112 -143 0 -23 -6 -32 -30 -42 -16 -7 -51 -27 -76
-45 -52 -37 -69 -36 -77 3 -8 39 -62 110 -102 134 -39 23 -36 42 11 73 56 36
107 43 162 20z m-625 -79 c36 -15 97 -79 97 -101 0 -13 -27 -15 -171 -15
l-171 0 25 43 c44 76 139 107 220 73z m402 -96 c35 -22 65 -73 65 -111 0 -29
27 -59 54 -59 28 0 81 -33 101 -63 8 -13 16 -41 18 -63 2 -39 2 -39 -38 -42
-47 -4 -65 -17 -65 -46 0 -44 13 -46 237 -46 l213 0 0 -62 c0 -35 -7 -101 -16
-148 l-16 -85 -131 -77 c-73 -42 -139 -79 -147 -83 -11 -4 -19 5 -28 29 -17
47 -91 110 -147 126 -25 7 -64 10 -88 8 -43 -5 -614 -218 -654 -244 -28 -18
-29 -45 -3 -69 20 -18 23 -18 68 -2 26 9 50 17 54 17 3 0 12 -31 19 -70 13
-76 35 -106 68 -95 36 11 41 35 25 119 -9 43 -12 82 -7 86 21 19 421 163 453
163 45 0 92 -24 114 -58 20 -31 126 -583 126 -659 0 -43 -4 -53 -39 -87 -36
-36 -42 -39 -98 -39 l-58 0 -18 99 c-19 104 -28 121 -63 121 -41 0 -49 -23
-35 -111 7 -45 15 -87 17 -94 4 -9 -18 -14 -88 -17 -51 -3 -94 -4 -96 -3 -1 1
-9 35 -16 75 -15 75 -25 90 -63 90 -34 0 -46 -32 -34 -91 19 -86 37 -80 -201
-77 l-213 3 -20 98 c-21 103 -35 125 -75 112 -29 -9 -33 -43 -17 -130 11 -59
11 -78 2 -81 -7 -3 -153 -4 -326 -2 -295 3 -316 4 -349 23 -68 40 -91 140 -47
206 18 28 43 42 137 81 63 25 120 47 127 47 7 1 15 -16 19 -36 9 -53 30 -83
58 -83 41 0 51 23 38 93 -8 43 -8 63 -1 68 6 3 75 30 152 59 78 29 150 60 160
68 23 20 22 45 -3 67 -19 17 -23 17 -105 -13 l-86 -32 -10 28 c-40 106 -140
229 -223 273 -28 14 -50 35 -60 57 -12 24 -31 40 -74 60 -52 24 -68 27 -179
27 l-123 0 0 26 c0 33 -23 53 -54 47 -29 -6 -33 7 -38 107 l-3 60 866 3 c944
2 899 -1 885 57 -5 18 -15 27 -36 32 -17 3 -30 6 -30 8 0 1 9 28 20 60 11 32
23 88 26 124 5 58 4 69 -16 94 -12 15 -28 27 -35 27 -27 0 -25 19 2 34 40 22
109 20 148 -4z m556 -101 c14 -23 10 -142 -7 -192 l-16 -47 -74 0 c-41 0 -74
4 -74 8 0 5 11 19 25 32 57 54 0 124 -58 73 -14 -13 -21 -14 -24 -6 -3 7 -15
28 -29 48 -13 20 -24 39 -24 44 0 16 84 54 134 60 64 8 135 -2 147 -20z
m-1799 -25 c69 -23 120 -72 142 -135 9 -30 20 -60 23 -66 3 -9 -8 -13 -39 -13
-39 0 -49 5 -93 50 -46 47 -76 59 -101 42 -19 -13 -23 -40 -9 -59 24 -30 18
-34 -52 -31 l-68 3 -12 60 c-13 66 -4 142 18 156 23 14 142 10 191 -7z m1048
-22 c0 -36 -27 -129 -48 -164 -15 -25 -22 -28 -71 -28 -49 0 -58 4 -97 40 -61
56 -104 51 -104 -12 0 -23 -4 -28 -24 -28 -13 0 -29 7 -36 15 -7 8 -23 15 -35
15 -12 0 -28 -7 -35 -15 -7 -8 -26 -15 -42 -15 -24 0 -29 3 -24 16 8 22 -20
64 -42 64 -10 0 -36 -18 -57 -40 -37 -38 -43 -40 -97 -40 -57 0 -58 1 -77 38
-19 37 -33 86 -45 150 l-5 32 419 0 420 0 0 -28z m-1374 -130 c12 -6 24 -23
26 -37 l5 -25 -99 0 c-98 0 -99 0 -93 23 11 34 45 86 63 96 13 7 24 3 47 -18
17 -16 40 -34 51 -39z m-255 -29 c-5 -19 -16 -29 -39 -35 -56 -15 -66 -44 -58
-166 3 -59 9 -119 12 -133 l6 -26 -85 -5 c-109 -7 -187 -40 -218 -92 -12 -20
-25 -36 -30 -36 -5 0 -9 112 -9 260 l0 260 214 0 214 0 -7 -27z m2525 -484 c8
-17 12 -35 7 -39 -4 -4 -84 -58 -176 -119 -152 -101 -168 -115 -165 -138 6
-54 22 -55 298 -2 140 26 260 48 267 48 12 1 29 -56 20 -66 -3 -3 -123 -27
-267 -53 -143 -27 -267 -54 -275 -60 -18 -15 -20 -54 -2 -68 6 -5 95 -29 197
-52 102 -23 193 -44 202 -46 14 -4 16 -12 11 -37 -3 -18 -7 -34 -9 -36 -7 -8
-439 72 -450 83 -14 14 -79 374 -70 384 10 10 379 230 388 231 4 1 15 -13 24
-30z m-2525 4 c43 -15 50 -15 88 0 73 30 289 17 278 -16 -3 -10 -14 -14 -90
-31 -16 -4 -32 -17 -39 -32 -10 -22 -8 -28 22 -59 l34 -35 -35 0 c-35 0 -120
35 -169 70 -36 25 -61 25 -93 0 -42 -33 -130 -70 -166 -70 l-35 0 34 35 c30
31 32 37 22 59 -7 15 -23 28 -39 31 -67 14 -87 21 -90 32 -11 33 197 46 278
16z m-321 -108 c27 -14 29 -18 24 -63 -5 -42 -3 -50 21 -72 23 -22 36 -25 93
-25 56 1 80 7 147 38 l80 38 80 -38 c68 -32 90 -38 148 -38 64 0 71 2 94 29
21 25 24 36 19 73 -5 40 -4 44 25 58 29 15 32 15 73 -9 61 -35 123 -107 158
-182 17 -36 29 -66 27 -68 -2 -2 -85 -34 -184 -71 -211 -80 -231 -89 -268
-124 -69 -63 -90 -153 -58 -248 12 -34 21 -65 21 -69 0 -4 -89 -4 -197 -1
-273 7 -352 33 -466 156 -148 161 -140 399 20 553 31 30 99 78 111 78 2 0 16
-7 32 -15z"/>
<path d="M5734 6896 c-50 -49 -52 -58 -24 -86 29 -29 43 -25 89 25 47 51 49
57 21 85 -28 28 -37 26 -86 -24z"/>
<path d="M5025 6666 c-38 -17 -60 -42 -80 -90 -19 -46 -13 -82 15 -91 36 -11
59 4 70 46 16 59 64 72 112 31 45 -38 101 26 62 69 -43 48 -117 62 -179 35z"/>
<path d="M5300 6539 c-33 -13 -59 -38 -77 -72 -13 -25 -13 -31 2 -53 21 -32
50 -30 77 6 28 39 70 41 94 4 13 -19 24 -24 47 -22 44 4 56 30 34 71 -33 61
-114 91 -177 66z"/>
<path d="M5408 6239 c-21 -12 -24 -59 -6 -77 20 -20 112 -15 131 6 23 25 21
48 -5 66 -25 18 -94 21 -120 5z"/>
<path d="M5942 6234 c-48 -34 -16 -84 54 -84 61 0 84 14 84 50 0 19 -7 33 -19
40 -29 15 -93 12 -119 -6z"/>
</g>
</svg>
