<?xml version="1.0" standalone="no"?>
<!DOCTYPE svg PUBLIC "-//W3C//DTD SVG 20010904//EN"
 "http://www.w3.org/TR/2001/REC-SVG-20010904/DTD/svg10.dtd">
<svg version="1.0" xmlns="http://www.w3.org/2000/svg"
 width="2000.000000pt" height="1247.000000pt" viewBox="0 0 2000.000000 1247.000000"
 preserveAspectRatio="xMidYMid meet">

<g transform="translate(0.000000,1247.000000) scale(0.100000,-0.100000)"
fill="#000000" stroke="none">
<path d="M15130 8015 c-202 -28 -317 -75 -414 -173 -94 -94 -144 -217 -166
-407 -14 -126 -14 -2274 1 -2402 22 -197 75 -319 186 -423 96 -90 191 -128
393 -155 363 -50 626 25 824 235 36 38 78 94 93 123 l28 52 3 -177 2 -178 45
0 45 0 0 795 0 795 -360 0 -360 0 0 -45 0 -45 316 0 316 0 -4 -447 c-5 -419
-6 -453 -27 -528 -35 -131 -74 -199 -171 -295 -68 -69 -102 -94 -170 -127
-129 -62 -199 -77 -370 -76 -170 1 -318 27 -418 73 -126 59 -221 187 -259 348
-17 72 -18 155 -18 1297 0 1142 1 1224 18 1285 55 199 166 310 362 360 124 32
320 44 473 31 232 -21 340 -60 433 -158 115 -122 148 -279 149 -715 l0 -188
45 0 45 0 0 243 c0 440 -35 591 -170 731 -97 102 -213 150 -420 175 -112 14
-332 12 -450 -4z"/>
<path d="M8340 7934 l0 -45 545 7 c300 4 545 5 545 2 0 -3 -265 -754 -590
-1669 -324 -915 -590 -1676 -590 -1691 l0 -28 655 0 655 0 0 45 0 45 -596 0
-596 0 4 23 c3 12 264 757 581 1655 341 963 577 1646 577 1667 l0 35 -595 0
-595 0 0 -46z"/>
<path d="M10150 6245 l0 -1735 720 0 720 0 0 45 0 45 -672 2 -673 3 -3 843 -2
842 525 0 525 0 0 45 0 45 -522 2 -523 3 -3 753 -2 752 675 0 675 0 0 45 0 45
-720 0 -720 0 0 -1735z"/>
<path d="M12180 6245 l0 -1735 50 0 50 0 0 845 0 845 338 0 c185 0 366 -5 402
-10 161 -26 270 -120 369 -324 51 -104 86 -208 248 -738 l188 -618 47 0 c27 0
48 3 48 6 0 4 -95 315 -211 693 -230 749 -247 792 -351 906 -32 35 -77 72
-100 84 -44 22 -44 22 37 41 28 6 91 31 140 55 186 89 298 246 335 465 7 43
10 199 8 445 l-3 380 -27 68 c-58 152 -143 227 -333 294 l-80 28 -577 3 -578
3 0 -1736z m1116 1634 c98 -17 212 -79 277 -148 107 -116 120 -189 115 -633
-5 -360 -9 -392 -65 -508 -58 -120 -203 -222 -388 -272 -75 -20 -107 -22 -517
-26 l-438 -4 0 801 0 801 478 0 c296 0 501 -4 538 -11z"/>
<path d="M4203 7806 c-28 -24 -28 -26 -31 -158 -4 -157 5 -201 49 -223 29 -15
30 -19 27 -73 l-3 -57 -42 -7 c-79 -13 -145 -66 -180 -143 -17 -37 -18 -94
-21 -835 l-3 -795 -33 -35 c-134 -140 -167 -370 -79 -545 48 -94 152 -192 256
-241 121 -56 95 -55 1303 -52 l1111 3 49 30 c63 40 103 103 112 181 l7 60 219
-39 c154 -28 227 -37 244 -31 43 15 64 56 70 132 4 65 3 72 -20 95 -18 18 -49
30 -104 42 -43 10 -82 20 -87 24 -4 4 58 19 139 33 80 15 156 34 170 43 36 24
46 58 35 121 -13 70 -25 90 -62 109 -28 15 -40 14 -168 -10 -76 -14 -147 -25
-157 -25 -11 0 13 21 56 50 111 74 121 109 61 207 -29 47 -64 73 -98 73 -12 0
-14 7 -9 32 11 56 19 195 12 222 -3 14 -15 34 -26 44 -20 18 -20 21 -4 83 19
72 14 165 -10 224 -18 43 -63 65 -148 73 -57 5 -58 5 -64 41 -15 80 -76 160
-150 196 -22 11 -69 21 -106 23 l-68 4 0 72 c-1 98 -25 165 -70 190 -54 32
-198 35 -284 6 -36 -12 -68 -26 -71 -31 -13 -19 -25 -7 -60 59 -50 96 -106
152 -151 152 -32 0 -47 -13 -173 -142 l-138 -142 -28 22 c-16 12 -52 29 -82
38 -73 21 -137 11 -208 -31 -48 -29 -60 -33 -83 -24 -25 10 -121 14 -152 7
-13 -2 -16 20 -20 139 -5 138 -6 143 -35 184 -40 57 -99 97 -155 107 l-45 7
-3 63 c-2 51 0 62 13 62 8 0 24 9 35 20 18 18 20 33 20 184 l0 165 -26 20
c-25 20 -39 21 -265 21 -237 0 -238 0 -266 -24z m467 -181 l0 -115 -200 0
-200 0 0 115 0 115 200 0 200 0 0 -115z m-70 -270 l0 -55 -130 0 -130 0 0 55
0 55 130 0 130 0 0 -55z m154 -169 c57 -24 80 -69 85 -163 l3 -83 -60 0 c-64
0 -92 -15 -92 -49 0 -30 22 -41 87 -41 61 0 63 -1 63 -26 0 -14 -13 -44 -28
-67 -37 -54 -52 -99 -52 -157 0 -39 -5 -51 -34 -79 -49 -48 -78 -120 -75 -187
3 -51 0 -56 -32 -84 l-34 -29 -242 -1 -243 0 0 315 0 315 183 0 c192 0 207 3
207 45 0 42 -15 45 -208 45 l-184 0 3 84 c4 96 21 129 80 158 30 16 66 18 287
18 193 0 261 -3 286 -14z m1113 -224 c14 -24 32 -61 39 -83 14 -38 13 -40 -22
-86 -37 -48 -37 -48 -89 -45 -43 3 -57 0 -74 -17 -26 -26 -26 -36 -1 -61 13
-13 33 -20 59 -20 35 0 38 -2 34 -24 -3 -15 -16 -29 -35 -37 -28 -12 -32 -10
-71 31 -23 24 -61 51 -84 62 -32 14 -44 27 -53 54 l-12 36 128 129 c141 141
135 139 181 61z m469 -107 c20 -27 25 -116 11 -175 -18 -72 -80 -157 -122
-166 -16 -4 -48 -15 -69 -26 l-40 -20 -24 27 -23 27 70 73 c39 40 71 78 71 84
0 15 -37 51 -52 51 -7 0 -47 -34 -89 -76 -68 -67 -79 -75 -97 -65 -11 6 -30
11 -41 11 -29 0 -27 29 6 97 40 82 126 150 218 174 49 13 168 2 181 -16z
m-937 -53 c46 -23 71 -59 85 -124 12 -53 13 -53 67 -70 34 -11 66 -30 86 -52
l32 -35 -29 -53 c-16 -29 -30 -61 -30 -70 0 -15 -19 -17 -171 -20 l-171 -3
-23 -27 -24 -28 -33 19 c-92 54 -243 65 -326 24 -31 -15 -40 -27 -56 -76 l-19
-59 -20 31 c-39 62 -19 168 39 208 60 42 62 46 57 119 -4 61 -2 73 19 103 53
77 132 100 210 62 57 -27 69 -27 99 5 59 64 138 82 208 46z m1169 -227 c67
-29 112 -86 112 -144 0 -26 -6 -33 -42 -49 -24 -11 -58 -31 -76 -45 -42 -32
-56 -27 -71 24 -12 38 -75 112 -115 134 -18 10 -18 12 5 38 25 28 86 56 127
57 12 0 39 -7 60 -15z m-625 -79 c36 -15 97 -79 97 -101 0 -13 -27 -15 -171
-15 l-171 0 25 43 c44 76 139 107 220 73z m402 -96 c35 -22 65 -73 65 -111 0
-29 27 -59 54 -59 28 0 81 -33 101 -63 8 -13 16 -41 18 -63 2 -39 2 -39 -38
-42 -47 -4 -65 -17 -65 -46 0 -44 13 -46 237 -46 l213 0 0 -62 c0 -35 -7 -101
-16 -148 l-16 -85 -131 -77 c-166 -97 -163 -96 -171 -63 -4 15 -28 48 -54 74
-53 53 -116 77 -185 69 -43 -5 -614 -218 -654 -244 -28 -18 -29 -45 -3 -69 20
-18 23 -18 68 -2 26 9 50 17 54 17 3 0 12 -31 19 -70 13 -76 35 -106 68 -95
35 11 40 34 24 119 -8 43 -11 82 -6 86 21 19 421 163 453 163 44 0 94 -25 115
-57 19 -28 125 -589 125 -660 0 -43 -4 -53 -39 -87 -36 -36 -42 -39 -98 -39
l-58 0 -18 99 c-19 104 -28 121 -63 121 -41 0 -49 -23 -35 -111 7 -45 15 -87
17 -94 4 -9 -18 -14 -88 -17 -51 -3 -94 -4 -95 -3 -1 0 -9 34 -18 75 -16 77
-25 90 -62 90 -34 0 -46 -32 -34 -91 19 -86 37 -80 -201 -77 l-213 3 -12 65
c-26 135 -39 159 -84 145 -28 -9 -32 -44 -16 -130 11 -59 11 -78 2 -81 -7 -3
-153 -4 -326 -2 -295 3 -316 4 -349 23 -68 40 -91 140 -47 206 18 28 43 42
137 81 63 25 120 47 127 47 7 1 15 -16 19 -36 9 -54 30 -83 59 -83 38 0 50 35
36 101 -9 41 -9 54 1 60 7 5 76 32 153 60 77 29 148 59 158 67 23 20 22 45 -3
67 -19 17 -23 17 -104 -13 l-84 -30 -41 83 c-31 63 -56 97 -107 144 -36 34
-81 69 -99 78 -19 9 -40 30 -49 50 -12 26 -31 41 -74 61 -52 24 -68 27 -179
27 l-123 0 0 26 c0 33 -23 53 -54 47 -29 -6 -33 7 -38 107 l-3 60 866 3 c944
2 899 -1 885 57 -5 18 -15 27 -36 32 -17 3 -30 6 -30 8 0 1 9 28 20 60 11 32
23 88 26 124 5 58 4 69 -16 94 -12 15 -28 27 -35 27 -27 0 -25 19 2 34 40 22
109 20 148 -4z m556 -101 c14 -23 10 -142 -7 -192 l-16 -47 -74 0 c-41 0 -74
4 -74 8 0 5 11 19 25 32 57 54 0 124 -58 73 -14 -13 -21 -14 -24 -6 -3 7 -15
28 -29 48 -13 20 -24 39 -24 44 0 16 84 54 134 60 64 8 135 -2 147 -20z
m-1799 -25 c69 -23 120 -72 142 -135 9 -30 20 -60 23 -66 3 -9 -8 -13 -39 -13
-39 0 -49 5 -93 50 -54 55 -85 63 -109 28 -14 -20 -14 -25 -1 -45 8 -12 15
-25 15 -28 0 -3 -30 -5 -67 -3 l-68 3 -12 60 c-13 66 -4 142 18 156 23 14 142
10 191 -7z m1048 -22 c0 -36 -27 -129 -48 -164 -15 -25 -22 -28 -71 -28 -49 0
-58 4 -97 40 -61 56 -104 51 -104 -12 0 -23 -4 -28 -24 -28 -13 0 -29 7 -36
15 -7 8 -23 15 -35 15 -12 0 -28 -7 -35 -15 -7 -8 -26 -15 -42 -15 -24 0 -29
3 -24 16 8 22 -20 64 -42 64 -10 0 -36 -18 -57 -40 -37 -38 -43 -40 -97 -40
-57 0 -58 1 -76 38 -23 44 -38 94 -45 145 l-6 37 420 0 419 0 0 -28z m-1374
-130 c12 -6 24 -23 26 -37 l5 -25 -99 0 c-98 0 -99 0 -93 23 11 34 45 86 63
96 13 7 24 3 47 -18 17 -16 40 -34 51 -39z m-255 -29 c-5 -19 -16 -29 -39 -35
-56 -15 -66 -44 -58 -166 3 -59 9 -119 12 -133 l6 -26 -87 -6 c-110 -8 -186
-40 -216 -91 -12 -20 -25 -36 -30 -36 -5 0 -9 112 -9 260 l0 260 214 0 214 0
-7 -27z m2525 -484 c8 -17 12 -35 7 -39 -4 -4 -84 -58 -176 -119 -152 -101
-168 -115 -165 -138 6 -54 22 -55 298 -2 140 26 260 48 267 48 12 1 29 -56 20
-66 -3 -3 -123 -27 -267 -53 -143 -27 -267 -54 -275 -60 -18 -15 -20 -54 -2
-67 6 -6 95 -29 197 -52 102 -24 193 -45 202 -47 14 -4 16 -12 11 -37 -3 -18
-7 -34 -9 -36 -7 -8 -439 72 -450 83 -14 14 -79 374 -70 384 10 10 379 230
388 231 4 1 15 -13 24 -30z m-2525 4 c43 -15 50 -15 88 0 75 30 290 18 278
-16 -3 -10 -14 -14 -90 -31 -16 -4 -32 -17 -39 -32 -10 -22 -8 -28 22 -59 l34
-35 -35 0 c-35 0 -120 35 -169 70 -36 25 -61 25 -93 0 -42 -33 -130 -70 -166
-70 l-35 0 34 35 c30 31 32 37 22 59 -7 15 -23 28 -39 31 -67 14 -87 21 -90
32 -11 33 197 46 278 16z m-321 -108 c27 -14 29 -18 24 -63 -5 -42 -3 -50 21
-72 23 -22 36 -25 93 -25 56 1 80 7 147 38 l80 38 80 -38 c68 -32 90 -38 148
-38 63 0 71 2 93 28 25 29 31 66 15 96 -8 14 -3 21 24 35 34 18 34 18 78 -7
61 -36 124 -108 159 -183 17 -36 29 -66 27 -68 -2 -2 -85 -34 -184 -71 -211
-80 -231 -89 -268 -124 -68 -63 -90 -154 -58 -249 12 -34 21 -64 21 -68 0 -4
-89 -4 -197 -1 -273 7 -352 33 -466 156 -148 161 -140 399 20 553 31 30 99 78
111 78 2 0 16 -7 32 -15z"/>
<path d="M5734 6896 c-50 -49 -52 -58 -24 -86 29 -29 43 -25 89 25 47 51 49
57 21 85 -28 28 -37 26 -86 -24z"/>
<path d="M5024 6666 c-39 -17 -71 -57 -86 -108 -10 -35 -9 -41 9 -60 33 -32
70 -18 83 33 16 59 64 72 112 31 45 -38 101 26 62 69 -43 48 -117 62 -180 35z"/>
<path d="M5300 6539 c-33 -13 -59 -38 -77 -72 -13 -25 -13 -31 2 -53 21 -32
50 -30 77 6 28 39 70 41 94 4 13 -19 24 -24 47 -22 44 4 56 30 34 71 -33 61
-114 91 -177 66z"/>
<path d="M5408 6239 c-21 -12 -24 -59 -6 -77 20 -20 112 -15 131 6 23 25 21
48 -5 66 -25 18 -94 21 -120 5z"/>
<path d="M5942 6234 c-48 -34 -16 -84 54 -84 61 0 84 14 84 50 0 19 -7 33 -19
40 -29 15 -93 12 -119 -6z"/>
</g>
</svg>
